<svg width="93" height="93" viewBox="0 0 93 93" fill="none" xmlns="http://www.w3.org/2000/svg">
<g clip-path="url(#clip0_172_62)">
<path d="M1.00351 85.0381H17.8995C18.3505 85.0381 18.7464 84.7374 18.8673 84.3025L23.7948 66.5387H42.9239L48.2699 84.3233C48.3976 84.7478 48.7883 85.0381 49.2316 85.0381H66.7685C66.7717 85.0381 66.775 85.0381 66.7766 85.0381C67.3311 85.0381 67.7805 84.5888 67.7805 84.0342C67.7805 83.886 67.7491 83.7455 67.6909 83.619L45.3787 11.6635C45.2485 11.2435 44.8594 10.9568 44.4193 10.9568H23.0323C22.5905 10.9568 22.201 11.2451 22.0721 11.6671L0.0437816 83.7407C-0.0485771 84.0451 0.00764127 84.3755 0.196776 84.6313C0.386312 84.8871 0.685072 85.0381 1.00351 85.0381ZM39.9769 52.3399H26.7081L30.629 38.3247C31.3409 35.7993 32.0139 32.8109 32.6649 29.9208C32.8139 29.2571 32.9604 28.6057 33.1058 27.9689C33.9671 31.4311 34.9144 35.1716 35.8641 38.3351L39.9769 52.3399Z" fill="#F2F2F2"/>
<path d="M75.2073 30.7397C74.6527 30.7397 74.2034 31.1891 74.2034 31.7436V84.0343C74.2034 84.5889 74.6527 85.0382 75.2073 85.0382H91.4612C92.0158 85.0382 92.4651 84.5889 92.4651 84.0343V31.7436C92.4651 31.1891 92.0158 30.7397 91.4612 30.7397H75.2073Z" fill="#F2F2F2"/>
<path d="M83.2277 26.3306C88.8904 26.3306 93 22.4905 93 17.1771C92.8767 11.7512 88.9021 7.96167 83.3345 7.96167C80.4922 7.96167 77.9684 8.94228 76.2281 10.7236C74.5949 12.3941 73.7247 14.6934 73.7753 17.1995C73.7235 19.6262 74.5957 21.8841 76.2325 23.5603C77.9769 25.3468 80.4613 26.3306 83.2277 26.3306Z" fill="#F2F2F2"/>
</g>
<defs>
<clipPath id="clip0_172_62">
<rect width="93" height="93" fill="white"/>
</clipPath>
</defs>
</svg>
