<svg width="317" height="317" viewBox="0 0 317 317" fill="none" xmlns="http://www.w3.org/2000/svg">
<circle cx="158.5" cy="158.5" r="158.5" fill="#D9D9D9"/>
<path d="M56.904 182L65.352 138.48H81.352C93.576 138.48 100.744 145.008 100.744 156.208C100.744 169.968 90.568 182 74.184 182H56.904ZM75.08 173.68C84.36 173.68 90.12 165.808 90.12 156.336C90.12 150.256 86.664 146.8 80.456 146.8H73.992L68.744 173.68H75.08ZM136.454 170.672C133.318 178.864 125.83 183.024 118.086 183.024C108.87 183.024 103.174 177.776 103.174 168.752C103.174 156.912 111.43 146.48 123.462 146.48C132.55 146.48 137.67 151.984 137.67 160.496C137.67 161.904 137.542 163.44 137.286 164.976L136.966 166.768H113.286C113.222 167.344 113.222 167.856 113.222 168.432C113.222 172.976 115.142 175.216 118.854 175.216C122.118 175.216 124.806 173.872 126.214 170.672H136.454ZM122.566 154.288C118.918 154.288 116.102 157.168 114.566 161.136H127.942C127.942 161.008 127.942 160.816 127.942 160.688C127.942 156.528 126.086 154.288 122.566 154.288ZM153.28 157.36C153.28 163.248 171.136 158.32 171.136 170.864C171.136 177.072 165.312 183.024 154.624 183.024C145.536 183.024 139.904 178.672 139.712 170.672H149.504C149.568 173.552 151.296 175.6 155.2 175.6C159.232 175.6 161.152 173.936 161.152 171.76C161.152 165.808 143.616 170.864 143.616 158.128C143.616 152.112 149.056 146.48 158.656 146.48C167.232 146.48 172.48 150.832 172.992 158.96H163.392C163.328 155.568 161.664 153.968 158.08 153.968C155.008 153.968 153.28 155.44 153.28 157.36ZM181.438 144.112L183.038 135.92H192.83L191.23 144.112H181.438ZM174.078 182L180.734 147.568H190.526L183.87 182H174.078ZM203.381 182.128C196.341 182.128 191.989 176.88 191.989 168.944C191.989 157.168 199.605 146.48 210.421 146.48C213.941 146.48 216.565 147.888 218.229 150.448L218.805 147.568H228.597L221.493 183.792C219.637 193.2 213.045 197.168 204.021 197.168C194.933 197.168 189.429 191.984 189.429 184.944H199.221C199.477 188.144 201.397 189.68 204.725 189.68C208.181 189.68 210.869 188.08 211.829 183.28L212.917 177.904C210.101 180.528 206.773 182.128 203.381 182.128ZM206.965 174.128C212.597 174.128 215.925 166.064 215.925 160.176C215.925 156.464 214.261 154.416 211.061 154.416C206.069 154.416 202.165 161.392 202.165 168.368C202.165 172.08 203.829 174.128 206.965 174.128ZM228.516 182L235.172 147.568H244.964L244.324 150.96C247.076 147.952 250.532 146.48 254.436 146.48C260.388 146.48 264.42 150 264.42 156.592C264.42 157.808 264.292 159.088 264.036 160.496L259.812 182H250.02L254.116 161.008C254.308 160.176 254.372 159.408 254.372 158.768C254.372 155.888 252.964 154.416 250.02 154.416C246.372 154.416 243.428 157.36 242.34 161.328L238.308 182H228.516Z" fill="black"/>
</svg>
