<svg width="93" height="93" viewBox="0 0 93 93" fill="none" xmlns="http://www.w3.org/2000/svg">
<g clip-path="url(#clip0_172_58)">
<path d="M61.4265 34.8014H43.648V0H61.4265C71.021 0 78.8252 7.80425 78.8252 17.3987C78.8252 26.9932 71.021 34.8014 61.4265 34.8014ZM49.3481 29.1013H61.4265C67.8784 29.1013 73.1251 23.8506 73.1251 17.4026C73.1251 10.9546 67.8745 5.704 61.4265 5.704H49.3481V29.1013ZM49.3481 34.8014H31.5735C21.979 34.8014 14.1747 26.9971 14.1747 17.4026C14.1747 7.80813 21.979 0 31.5735 0H49.352V34.8014H49.3481ZM31.5735 5.70012C25.1216 5.70012 19.8749 10.9507 19.8749 17.3987C19.8749 23.8467 25.1216 29.1013 31.5735 29.1013H43.6519V5.70012H31.5735ZM49.3481 63.8988H31.5735C21.979 63.8988 14.1747 56.0945 14.1747 46.5C14.1747 36.9055 21.979 29.1013 31.5735 29.1013H49.352V63.8988H49.3481ZM31.5735 34.8014C25.1216 34.8014 19.8749 40.052 19.8749 46.5C19.8749 52.948 25.1255 58.1986 31.5735 58.1986H43.6519V34.8014H31.5735ZM31.6665 93C22.0216 93 14.1709 85.1957 14.1709 75.6012C14.1709 66.0068 21.9751 58.2025 31.5696 58.2025H49.3481V75.4114C49.3481 85.1105 41.416 93 31.6665 93ZM31.5735 63.8988C28.4721 63.9029 25.4989 65.1367 23.3058 67.3297C21.1128 69.5228 19.879 72.496 19.8749 75.5974C19.8749 82.0493 25.1642 87.296 31.6704 87.296C38.2772 87.296 43.6557 81.964 43.6557 75.4075V63.8988H31.5735ZM61.4265 63.8988H61.0467C51.4522 63.8988 43.648 56.0945 43.648 46.5C43.648 36.9055 51.4522 29.1013 61.0467 29.1013H61.4265C71.021 29.1013 78.8252 36.9055 78.8252 46.5C78.8252 56.0945 71.021 63.8988 61.4265 63.8988ZM61.0506 34.8014C54.5987 34.8014 49.352 40.052 49.352 46.5C49.352 52.948 54.6026 58.1986 61.0506 58.1986H61.4304C67.8822 58.1986 73.129 52.948 73.129 46.5C73.129 40.052 67.8745 34.8014 61.4265 34.8014H61.0506Z" fill="#F2F2F2"/>
</g>
<defs>
<clipPath id="clip0_172_58">
<rect width="93" height="93" fill="white"/>
</clipPath>
</defs>
</svg>
