<svg width="100" height="100" viewBox="0 0 100 100" fill="none" xmlns="http://www.w3.org/2000/svg">
<path d="M82.1238 27.3804L89.2667 27.3518L89.2857 36.9685L82.1429 36.909V56.4923C82.1429 61.1495 83.3191 63.4804 86.2952 63.4804C88.3929 63.4804 89.2857 62.89 91.6667 61.7114V72.1352C89.2857 73.5257 86.1048 74.2209 82.5905 74.2209C77.6619 74.2209 74.2524 72.409 72.3548 68.7995C70.9357 66.0852 70.2381 61.8113 70.2381 55.9732L70.2262 36.8424C70.2262 36.8424 65.5405 36.9185 65.5405 36.9566L65.4762 27.3852H70.2381C70.2262 27.3852 70.1595 17.9686 70.15 17.8353L82.1429 17.7995V27.3828L82.1238 27.3804ZM48.8095 72.6185V27.3804H60.7143V72.6185H48.8095ZM23.5048 26.6781C18.9048 26.6781 14.95 28.2399 11.6357 31.3685C8.18811 34.7042 6.46192 38.8733 6.46192 43.8781C6.46192 47.2138 7.60715 50.3352 9.50001 53.2543C11.1881 55.9638 13.0952 57.7042 15.4762 58.4638V58.6756C13.0952 59.6447 12.1286 62.0828 12.1286 65.9685C12.1286 68.9566 13.0952 71.1781 15.4762 72.6424V72.8519C8.33334 75.0043 5.95239 78.9995 5.95239 84.8352C5.95239 89.909 8.00001 93.6234 12.1905 95.9972C15.5072 97.871 19.7048 98.8113 24.8429 98.8113C37.3572 98.8113 43.6072 93.4209 43.6072 82.6518C43.6072 75.9114 38.7619 71.7757 29.0881 70.2472C26.8548 69.8996 25.1667 69.0685 24.0167 67.7471C23.1357 66.8447 22.6929 65.9424 22.6929 65.0352C22.6929 62.4638 24.0429 60.9709 26.7476 60.5519C30.8714 59.9257 34.2381 57.9567 36.8405 54.6543C39.4452 51.3519 40.7476 47.4829 40.7476 43.0352C40.7476 41.6448 40.5048 40.1519 39.9619 38.5542C41.7191 38.1352 44.0452 37.7542 44.0452 37.409V26.6733C39.2833 28.34 36.0048 29.171 32.7595 29.171C29.9191 27.5091 26.8191 26.6781 23.5048 26.6781ZM23.9119 36.2638C25.9405 36.2638 27.5333 37.0662 28.681 38.6638C29.6262 40.1233 30.1024 41.8638 30.1024 43.8781C30.1024 48.7424 28.0381 51.1709 23.9119 51.1709C19.65 51.1709 17.5191 48.7709 17.5191 43.9781C17.5191 38.8352 19.65 36.2638 23.9119 36.2638ZM24.6191 78.6924C30.3 78.6924 33.1452 80.4638 33.1452 84.0067C33.1452 87.7591 30.5381 89.6328 25.3333 89.6328C19.3833 89.6328 16.4048 87.8186 16.4048 84.2114C16.4048 80.5281 19.1429 78.6924 24.6191 78.6924ZM61.7786 11.3376C61.7786 15.6257 58.6238 19.1042 54.7286 19.1042C50.8333 19.1042 47.6786 15.6257 47.6786 11.3376C47.6786 7.04955 50.8333 3.57092 54.7286 3.57092C58.6238 3.57092 61.7786 7.04955 61.7786 11.3376Z" fill="#F2F2F2"/>
</svg>
