<svg width="100" height="115" viewBox="0 0 100 115" fill="none" xmlns="http://www.w3.org/2000/svg">
<path d="M89.2857 7.14282H10.7143C4.79911 7.14282 0 11.9419 0 17.8571V96.4285C0 102.344 4.79911 107.143 10.7143 107.143H89.2857C95.2009 107.143 100 102.344 100 96.4285V17.8571C100 11.9419 95.2009 7.14282 89.2857 7.14282ZM54.4196 85.1339C54.4196 94.866 48.7054 99.308 40.3795 99.308C32.8571 99.308 28.5045 95.4241 26.2723 90.7142L33.9286 86.0937C35.4018 88.7053 36.7411 90.9151 39.9777 90.9151C43.058 90.9151 45.0223 89.7098 45.0223 85V53.058H54.4196V85.1339ZM76.6518 99.308C67.9241 99.308 62.2768 95.1562 59.5313 89.7098L67.1875 85.2901C69.1964 88.5714 71.8304 91.0044 76.4509 91.0044C80.3348 91.0044 82.8348 89.0625 82.8348 86.3616C82.8348 83.1473 80.2902 82.0089 75.9821 80.1116L73.6384 79.1071C66.8527 76.2276 62.3661 72.5892 62.3661 64.933C62.3661 57.8794 67.7455 52.5223 76.1161 52.5223C82.0982 52.5223 86.3839 54.5982 89.4643 60.0446L82.1429 64.7321C80.5357 61.8526 78.7946 60.7142 76.0938 60.7142C73.3482 60.7142 71.6071 62.4553 71.6071 64.7321C71.6071 67.5446 73.3482 68.683 77.3884 70.4464L79.7321 71.4509C87.7232 74.866 92.2098 78.3705 92.2098 86.2276C92.2098 94.6651 85.558 99.308 76.6518 99.308Z" fill="#F2F2F2"/>
</svg>
