<svg width="75" height="75" viewBox="0 0 75 75" fill="none" xmlns="http://www.w3.org/2000/svg">
<g clip-path="url(#clip0_172_7)">
<path d="M59.375 0H15.625C6.99688 0 0 6.99688 0 15.625V59.375C0 68.0031 6.99688 75 15.625 75H59.375C68.0062 75 75 68.0031 75 59.375V15.625C75 6.99688 68.0062 0 59.375 0ZM25 59.375H15.625V25H25V59.375ZM20.3125 21.0375C17.2938 21.0375 14.8438 18.5688 14.8438 15.525C14.8438 12.4812 17.2938 10.0125 20.3125 10.0125C23.3312 10.0125 25.7812 12.4812 25.7812 15.525C25.7812 18.5688 23.3344 21.0375 20.3125 21.0375ZM62.5 59.375H53.125V41.8625C53.125 31.3375 40.625 32.1344 40.625 41.8625V59.375H31.25V25H40.625V30.5156C44.9875 22.4344 62.5 21.8375 62.5 38.2531V59.375Z" fill="#F2F2F2"/>
</g>
<defs>
<clipPath id="clip0_172_7">
<rect width="75" height="75" fill="white"/>
</clipPath>
</defs>
</svg>
