<svg width="100" height="89" viewBox="0 0 100 89" fill="none" xmlns="http://www.w3.org/2000/svg">
<path d="M82.0598 28.7811C81.0244 28.4248 79.9516 28.0876 78.847 27.7687C79.0285 27.0277 79.1952 26.2963 79.3433 25.5774C81.7754 13.7719 80.1852 4.2613 74.7553 1.13002C69.5487 -1.87247 61.0337 1.2581 52.4339 8.74221C51.6069 9.46188 50.7776 10.2238 49.9487 11.0224C49.3964 10.494 48.845 9.98347 48.295 9.4951C39.2822 1.4926 30.2482 -1.87976 24.8236 1.26059C19.622 4.27179 18.0816 13.2126 20.2708 24.4008C20.4822 25.4814 20.7293 26.585 21.0087 27.7071C19.7302 28.07 18.4958 28.4569 17.3148 28.8685C6.74828 32.5525 0 38.3262 0 44.315C0 50.5003 7.24428 56.7043 18.2502 60.466C19.1187 60.7629 20.0199 61.0436 20.9487 61.3101C20.6472 62.5236 20.385 63.7128 20.1649 64.8727C18.0775 75.8667 19.7076 84.5963 24.8954 87.5885C30.2539 90.6785 39.247 87.5023 48.004 79.8476C48.6961 79.2426 49.3907 78.6009 50.0866 77.9283C50.9885 78.7968 51.889 79.6188 52.7848 80.3898C61.2669 87.689 69.6444 90.6364 74.8274 87.6359C80.1806 84.5369 81.9203 75.1592 79.6617 63.7497C79.4892 62.8784 79.2884 61.9882 79.063 61.0821C79.6945 60.8954 80.3145 60.7027 80.9191 60.5023C92.3607 56.7114 99.8051 50.5829 99.8051 44.315C99.8051 38.3045 92.8392 32.4919 82.0598 28.7811ZM79.5782 56.4552C79.0324 56.6359 78.4725 56.8105 77.9019 56.9798C76.6388 52.981 74.934 48.7289 72.8478 44.3358C74.8386 40.0473 76.4774 35.8495 77.7052 31.8767C78.7262 32.1722 79.7171 32.4838 80.672 32.8126C89.9077 35.992 95.5414 40.6929 95.5414 44.315C95.5414 48.1732 89.4572 53.1818 79.5782 56.4552ZM75.479 64.5778C76.4778 69.6229 76.6205 74.1843 75.9589 77.7501C75.3645 80.9542 74.169 83.0905 72.691 83.9461C69.5457 85.7666 62.8194 83.4002 55.5654 77.1578C54.7338 76.4422 53.8961 75.6782 53.0559 74.8695C55.8681 71.7938 58.6787 68.2182 61.4218 64.2472C66.2467 63.819 70.805 63.1191 74.9388 62.1635C75.1424 62.9848 75.3232 63.7902 75.479 64.5778ZM34.0258 83.6315C30.9528 84.7167 28.5053 84.7478 27.0258 83.8947C23.8776 82.079 22.5689 75.0699 24.3541 65.6678C24.5586 64.5911 24.802 63.485 25.0825 62.3545C29.1709 63.2585 33.6959 63.9091 38.5323 64.3012C41.2939 68.187 44.1857 71.7586 47.0999 74.886C46.4632 75.5007 45.829 76.0859 45.1983 76.6373C41.326 80.0221 37.4456 82.4236 34.0258 83.6315ZM19.6291 56.4316C14.7625 54.7682 10.7435 52.6064 7.98864 50.2473C5.51324 48.1274 4.26346 46.0228 4.26346 44.315C4.26346 40.6808 9.68166 36.0453 18.7183 32.8947C19.8147 32.5124 20.9625 32.1521 22.1537 31.8137C23.4026 35.8762 25.0409 40.1237 27.018 44.4188C25.0153 48.7776 23.3537 53.0928 22.0926 57.2029C21.2434 56.9588 20.4207 56.7019 19.6291 56.4316ZM24.455 23.582C22.5793 13.9963 23.825 6.76513 26.9597 4.95059C30.2987 3.01757 37.682 5.77365 45.4639 12.6834C45.9613 13.1251 46.4607 13.5873 46.9615 14.0655C44.0617 17.1792 41.1964 20.7241 38.4593 24.587C33.7654 25.022 29.2722 25.7209 25.1411 26.6568C24.8814 25.612 24.6513 24.5855 24.455 23.582ZM67.5064 34.2125C66.5188 32.5067 65.505 30.8412 64.4714 29.2212C67.6558 29.6237 70.7068 30.1581 73.572 30.8121C72.7118 33.5689 71.6396 36.4513 70.3776 39.4061C69.4723 37.6874 68.5147 35.9544 67.5064 34.2125ZM49.9501 17.1126C51.9167 19.2432 53.8862 21.622 55.8233 24.2029C53.8713 24.1107 51.8951 24.0627 49.9025 24.0627C47.9288 24.0627 45.9672 24.1096 44.0272 24.2002C45.9663 21.6433 47.9528 19.2677 49.9501 17.1126ZM32.2814 34.242C31.2949 35.9526 30.3552 37.6762 29.4641 39.4029C28.2225 36.4584 27.1603 33.5628 26.2926 30.7669C29.1402 30.1297 32.1768 29.6086 35.341 29.2137C34.2928 30.8487 33.2706 32.5268 32.2814 34.242ZM35.4321 59.7204C32.1629 59.3557 29.0807 58.8615 26.2338 58.2418C27.1153 55.396 28.201 52.4387 29.4689 49.4307C30.3623 51.1562 31.3058 52.8805 32.2983 54.5948C33.3093 56.3413 34.3569 58.0521 35.4321 59.7204ZM50.0681 71.818C48.0473 69.6377 46.0317 67.2259 44.0631 64.6316C45.9741 64.7066 47.9224 64.7449 49.9025 64.7449C51.9368 64.7449 53.9478 64.6991 55.9272 64.611C53.9837 67.252 52.0214 69.6675 50.0681 71.818ZM70.4183 49.2774C71.7523 52.3179 72.8768 55.2598 73.7697 58.0571C70.8759 58.7172 67.7515 59.2489 64.4597 59.644C65.4957 58.0022 66.5185 56.3081 67.5234 54.5655C68.5401 52.8025 69.5055 51.0368 70.4183 49.2774ZM63.8302 52.4355C62.2701 55.1406 60.6684 57.7229 59.0424 60.1605C56.0807 60.3722 53.021 60.4813 49.9025 60.4813C46.7966 60.4813 43.7755 60.3848 40.8663 60.196C39.1747 57.7265 37.5382 55.1365 35.988 52.4587C34.4419 49.7883 33.0192 47.0953 31.7298 44.4173C33.0189 41.7332 34.4381 39.0372 35.9754 36.3715C37.5167 33.6987 39.1384 31.1219 40.8144 28.6678C43.7826 28.4434 46.8263 28.3264 49.9024 28.3264C52.9922 28.3264 56.04 28.4443 59.0074 28.6706C60.6577 31.1068 62.2689 33.6758 63.8162 36.3489C65.3811 39.0521 66.8187 41.7302 68.1188 44.3568C66.8226 47.0285 65.3883 49.7336 63.8302 52.4355ZM72.6256 4.82375C75.9678 6.75109 77.2675 14.5241 75.1676 24.7168C75.0337 25.3672 74.8828 26.0297 74.719 26.701C70.5783 25.7456 66.082 25.0346 61.3744 24.593C58.632 20.6877 55.7901 17.1373 52.9375 14.0636C53.7045 13.3258 54.4703 12.6223 55.233 11.9584C62.6013 5.54608 69.4879 3.01437 72.6256 4.82375ZM49.9025 35.4028C54.8246 35.4028 58.8148 39.3928 58.8148 44.315C58.8148 49.237 54.8246 53.2273 49.9025 53.2273C44.9805 53.2273 40.9903 49.237 40.9903 44.315C40.9903 39.3928 44.9805 35.4028 49.9025 35.4028Z" fill="#F2F2F2"/>
</svg>
