<svg width="317" height="317" viewBox="0 0 317 317" fill="none" xmlns="http://www.w3.org/2000/svg">
<circle cx="158.5" cy="158.5" r="158.5" fill="#D9D9D9"/>
<path d="M97.792 145.456C93.504 145.456 91.456 147.632 91.456 150.32C91.456 157.68 113.216 152.432 113.216 168.176C113.216 176.56 105.856 183.024 94.08 183.024C82.688 183.024 76.544 177.52 76.16 168.368H86.912C87.232 172.592 89.856 175.024 94.4 175.024C99.392 175.024 102.272 172.592 102.272 169.264C102.272 161.456 80.512 166.512 80.512 151.408C80.512 144.176 86.4 137.456 98.752 137.456C109.248 137.456 115.52 142.896 115.52 151.792H104.768C104.448 147.632 102.336 145.456 97.792 145.456ZM119.034 170.608L122.042 154.992H117.882L119.354 147.568H123.514L125.05 139.568H134.842L133.306 147.568H140.41L138.938 154.992H131.898L129.082 169.52C128.89 170.352 128.762 171.12 128.762 171.696C128.762 173.872 129.978 174.768 132.986 174.768H135.034L133.626 182.128C132.41 182.64 130.17 183.024 127.546 183.024C121.402 183.024 118.522 180.72 118.522 175.216C118.522 173.872 118.714 172.336 119.034 170.608ZM151.774 158.96H141.982C144.158 150.768 150.75 146.48 159.71 146.48C168.862 146.48 173.15 151.216 173.15 157.488C173.15 158.512 173.022 159.472 172.83 160.56L170.334 173.424C169.694 176.752 169.502 178.736 169.502 180.272C169.502 180.976 169.566 181.488 169.63 182H159.518C159.454 181.744 159.454 181.424 159.454 181.04C159.454 180.336 159.518 179.44 159.646 178.416C156.318 181.616 152.286 183.024 148.574 183.024C142.558 183.024 138.142 179.888 138.142 173.872C138.142 169.136 141.278 165.04 147.166 163.056C152.414 161.328 155.998 161.008 162.974 160.944L163.102 160.176C163.23 159.536 163.294 158.96 163.294 158.384C163.294 155.76 161.694 154.416 158.366 154.416C154.974 154.416 152.734 156.272 151.774 158.96ZM148.254 172.848C148.254 175.152 149.726 176.24 152.222 176.24C156.638 176.24 160.67 172.72 161.566 167.984L161.822 166.64C151.262 166.832 148.254 169.392 148.254 172.848ZM210.585 159.984H200.857C200.857 156.08 199.001 154.416 195.993 154.416C190.681 154.416 187.161 161.584 187.161 168.688C187.161 172.784 189.017 175.088 192.409 175.088C195.289 175.088 197.785 173.488 199.065 170.224H208.857C205.849 178.8 198.745 183.024 191.257 183.024C182.489 183.024 177.049 177.776 177.049 168.752C177.049 157.296 184.985 146.48 196.825 146.48C205.401 146.48 210.521 151.408 210.585 159.984ZM211.516 182L220.476 135.92H230.268L225.276 161.456L238.972 147.568H250.492L234.172 163.44L244.54 182H233.532L224.444 165.808L221.308 182H211.516Z" fill="black"/>
</svg>
