<svg width="100" height="115" viewBox="0 0 100 115" fill="none" xmlns="http://www.w3.org/2000/svg">
<g clip-path="url(#clip0_172_32)">
<path d="M100 34.8415C100 33.8348 99.9822 32.8326 99.9554 31.8237C99.9286 29.6233 99.7361 27.4281 99.3795 25.2567C99.0072 23.0828 98.3136 20.9764 97.3214 19.0067C95.3068 15.0508 92.0903 11.8351 88.1339 9.82143C86.1648 8.82788 84.0582 8.1342 81.8839 7.76339C79.712 7.40484 77.516 7.21158 75.3148 7.18527C74.3081 7.15848 73.3058 7.14732 72.2969 7.14062H27.7098C26.7031 7.14062 25.7009 7.15848 24.692 7.18527C24.1451 7.20089 23.596 7.21875 23.0469 7.24554C21.3961 7.31183 19.7513 7.48481 18.1228 7.76339C16.5005 8.04649 14.9132 8.50298 13.3884 9.125C12.8735 9.34077 12.3668 9.57292 11.8683 9.82143C10.3972 10.5744 9.01946 11.4974 7.76341 12.5714C7.34377 12.9308 6.93975 13.3036 6.55136 13.6875C4.98795 15.2469 3.6809 17.0436 2.67859 19.0112C1.6859 20.9807 0.992271 23.0872 0.620553 25.2612C0.267186 27.4313 0.0776628 29.625 0.0535889 31.8237C0.024571 32.8304 0.0134103 33.8326 0.00671387 34.8415V79.4464C0.00671387 80.4531 0.024571 81.4554 0.0535889 82.4621C0.0801968 84.6624 0.272707 86.8576 0.629482 89.029C1.00071 91.2031 1.69437 93.3097 2.68752 95.279C4.7033 99.2318 7.91651 102.447 11.8683 104.464C13.838 105.456 15.9445 106.149 18.1183 106.52C20.2903 106.879 22.4863 107.072 24.6875 107.098C25.692 107.125 26.6964 107.136 27.7054 107.143H72.3014C73.3081 107.143 74.3103 107.125 75.3192 107.098C77.5211 107.071 79.7178 106.877 81.8906 106.52C84.0644 106.149 86.1708 105.456 88.1406 104.464C92.0936 102.447 95.3072 99.2312 97.3214 95.2768C98.3146 93.3074 99.0082 91.2009 99.3795 89.0268C99.7381 86.8556 99.9314 84.6603 99.9576 82.4598C99.9844 81.4554 99.9956 80.4509 100.002 79.4442V38.4241C100 37.2299 100 36.0357 100 34.8415ZM84.4018 88.6362C79.9375 79.9464 71.6273 82.1027 67.3683 84.2902C66.9844 84.5134 66.5915 84.7366 66.1964 84.9598L66.1027 85.0156C57.2857 89.7031 45.4487 90.0469 33.5469 84.9308C23.8584 80.7299 15.666 73.6984 10.0447 64.7589C12.7796 66.7824 15.7083 68.5298 18.788 69.9754C31.3683 75.8683 44.0112 75.442 52.9398 69.9754C40.2165 60.1875 29.5915 47.4308 21.4464 37.1138C19.8948 35.3035 18.4928 33.3701 17.2545 31.3326C27.0089 40.2612 42.4107 51.471 47.942 54.5737C36.2076 42.1875 25.8683 26.9085 26.3527 27.3996C44.8326 46.0201 61.8839 56.5491 61.8839 56.5491C62.5268 56.9018 63 57.1853 63.3862 57.442C63.7434 56.5307 64.0533 55.6017 64.3148 54.6585C67.2656 43.8705 63.9442 31.5379 56.4331 21.3549C73.5737 31.6406 83.7054 51.192 79.5536 67.7277C79.4554 68.1138 79.3415 68.4866 79.2322 68.8638C87.8304 79.4442 85.4911 90.7768 84.3951 88.6384L84.4018 88.6362Z" fill="#F2F2F2"/>
</g>
<defs>
<clipPath id="clip0_172_32">
<rect width="100" height="114.286" fill="white"/>
</clipPath>
</defs>
</svg>
