<svg width="50" height="50" viewBox="0 0 50 50" fill="none" xmlns="http://www.w3.org/2000/svg">
<g clip-path="url(#clip0_105_19)">
<path d="M25 4.16667C36.4875 4.16667 45.8333 13.5125 45.8333 25C45.8333 36.4875 36.4875 45.8333 25 45.8333C13.5125 45.8333 4.16667 36.4875 4.16667 25C4.16667 13.5125 13.5125 4.16667 25 4.16667ZM25 0C11.1937 0 0 11.1937 0 25C0 38.8062 11.1937 50 25 50C38.8062 50 50 38.8062 50 25C50 11.1937 38.8062 0 25 0ZM25 8.33333C15.7958 8.33333 8.33333 15.7958 8.33333 25C8.33333 34.2042 15.7958 41.6667 25 41.6667V8.33333Z" fill="black"/>
</g>
<defs>
<clipPath id="clip0_105_19">
<rect width="50" height="50" fill="white"/>
</clipPath>
</defs>
</svg>
